<?xml version="1.0" encoding="utf-8"?>
<!-- Generator: Adobe Illustrator 16.2.1, SVG Export Plug-In . SVG Version: 6.00 Build 0)  -->
<!DOCTYPE svg PUBLIC "-//W3C//DTD SVG 1.1//EN" "http://www.w3.org/Graphics/SVG/1.1/DTD/svg11.dtd">
<svg version="1.1" id="wave_expanded" xmlns="http://www.w3.org/2000/svg" xmlns:xlink="http://www.w3.org/1999/xlink" x="0px"
	 y="0px" width="8192px" height="288px" viewBox="0 0 8192 288" enable-background="new 0 0 8192 288" xml:space="preserve">
<path fill="none" stroke="#FFFFFF" stroke-width="4" stroke-miterlimit="10" d="M3607.785,140.5
	c13.653,0,13.653,19.816,27.306,19.816s13.652-31.628,27.307-31.628c13.652,0,13.652,31.628,27.306,31.628
	c13.652,0,13.652-23.723,27.307-23.723c13.653,0,13.653,23.723,27.307,23.723c13.654,0,13.654-23.723,27.309-23.723l0,0
	c13.652,0,13.652,15.815,27.306,15.815c13.651,0,13.651-15.815,27.306-15.815c13.652,0,13.652,15.815,27.306,15.815
	c13.652,0,13.652-15.815,27.306-15.815c13.654,0,13.654,15.815,27.309,15.815c13.653,0,13.653-15.815,27.308-15.815
	c20.48,0,20.48,15.815,40.959,15.815s20.479-15.815,40.958-15.815c20.479,0,20.479,15.815,40.959,15.815
	c20.479,0,20.479-15.815,40.957-15.815c20.481,0,20.481,15.815,40.964,15.815c20.48,0,20.48-15.815,40.96-15.815
	c27.307,0,27.307,15.815,54.611,15.815c27.306,0,27.306-15.815,54.612-15.815s27.307,15.815,54.611,15.815
	c27.307,0,27.307-15.815,54.612-15.815c27.308,0,27.308,15.815,54.616,15.815c27.31,0,27.31-15.815,54.615-15.815
	c23.467,0,23.467,15.815,46.933,15.815c23.467,0,23.467-15.815,46.933-15.815c23.467,0,23.467,11.861,46.933,11.861
	c23.467,0,23.467-7.908,46.934-7.908c23.468,0,23.468,7.908,46.936,7.908c23.467,0,23.467-7.908,46.934-7.908"/>
<path fill="none" stroke="#FFFFFF" stroke-width="4" stroke-miterlimit="10" d="M4790.785,140.5
	c39.264,0,39.264,19.816,78.524,19.816s39.261-31.628,78.528-31.628c39.261,0,39.261,31.628,78.524,31.628
	c39.261,0,39.261-23.723,78.527-23.723c39.264,0,39.264,23.723,78.528,23.723c39.266,0,39.266-23.723,78.533-23.723l0,0
	c39.261,0,39.261,15.815,78.524,15.815c39.258,0,39.258-15.815,78.524-15.815c39.262,0,39.262,15.815,78.525,15.815
	c39.261,0,39.261-15.815,78.524-15.815c39.267,0,39.267,15.815,78.533,15.815c39.264,0,39.264-15.815,78.53-15.815
	c58.897,0,58.897,15.815,117.789,15.815c58.891,0,58.891-15.815,117.785-15.815c58.892,0,58.892,15.815,117.789,15.815
	c58.892,0,58.892-15.815,117.783-15.815c58.899,0,58.899,15.815,117.803,15.815c58.896,0,58.896-15.815,117.791-15.815
	c78.527,0,78.527,15.815,157.049,15.815c78.525,0,78.525-15.815,157.053-15.815s78.527,15.815,157.05,15.815
	c78.527,0,78.527-15.815,157.052-15.815c78.531,0,78.531,15.815,157.064,15.815c78.535,0,78.535-15.815,157.061-15.815
	c67.485,0,67.485,15.815,134.967,15.815c67.486,0,67.486-15.815,134.968-15.815c67.485,0,67.485,11.861,134.968,11.861
	c67.484,0,67.484-7.908,134.971-7.908c67.487,0,67.487,7.908,134.975,7.908c67.485,0,67.485-7.908,134.971-7.908"/>
<path fill="none" stroke="#FFFFFF" stroke-width="4" stroke-miterlimit="10" d="M0.5,144.5h639.998c2.56,0,2.56,15.814,5.12,15.814
	c2.559,0,2.559-31.627,5.119-31.627s2.561,31.627,5.12,31.627c2.561,0,2.561-31.627,5.121-31.627c2.56,0,2.559,31.627,5.119,31.627
	c2.562,0,2.561-31.627,5.122-31.627c2.558,0,2.558,31.627,5.119,31.627c2.558,0,2.558-47.443,5.119-47.443
	c2.56,0,2.56,63.258,5.12,63.258s2.561-63.258,5.119-63.258c2.561,0,2.561,63.258,5.122,63.258c2.56,0,2.56-94.888,5.12-94.888
	c5.12,0,5.12,191.259,10.24,191.259c5.12,0,5.12-256,10.239-256c5.12,0,5.12,256,10.24,256s5.12-256,10.241-256
	c5.119,0,5.119,256,10.24,256s5.121-191.259,10.241-191.259c5.119,0,5.119,94.888,10.24,94.888s5.121-63.258,10.241-63.258
	c5.119,0,5.119,63.258,10.239,63.258s5.12-63.258,10.24-63.258c5.12,0,5.12,63.258,10.24,63.258c5.12,0,5.12-63.258,10.241-63.258
	c5.12,0,5.12,159.629,10.24,159.629c5.121,0,5.121-256,10.24-256s5.12,256,10.24,256c5.12,0,5.12-256,10.239-256
	c5.12,0,5.12,256,10.241,256s5.121-159.629,10.242-159.629l0,0c13.652,0,13.652,63.258,27.305,63.258
	c13.653,0,13.652-94.888,27.306-94.888s13.653,142.332,27.306,142.332c13.652,0,13.652-158.146,27.307-158.146
	c13.654,0,13.654,158.146,27.308,158.146c13.653,0,13.653-158.146,27.309-158.146c13.652,0,13.652,126.519,27.305,126.519
	c13.653,0,13.653-79.073,27.307-79.073c13.652,0,13.652,63.258,27.306,63.258c13.652,0,13.652-63.258,27.306-63.258
	c13.654,0,13.654,63.258,27.309,63.258s13.654-63.258,27.308-63.258c13.652,0,13.652,63.258,27.307,63.258
	c13.653,0,6.595-63.258,20.248-63.258s5.347,32.444,19,32.444"/>
<path fill="none" stroke="#FFFFFF" stroke-width="4" stroke-miterlimit="10" d="M1280.5,145.5c2.048,0,2.048,4,4.096,4
	c2.047,0,2.047-20.813,4.095-20.813c2.048,0,2.048,31.627,4.097,31.627c2.048,0,2.048-31.627,4.096-31.627
	s2.047,31.627,4.096,31.627c2.049,0,2.048-31.627,4.098-31.627c2.046,0,2.046,31.627,4.095,31.627
	c2.046,0,2.046-47.443,4.096-47.443c2.047,0,2.047,63.258,4.096,63.258s2.048-63.258,4.096-63.258
	c2.048,0,2.048,63.258,4.098,63.258c2.047,0,2.047-94.888,4.096-94.888c4.096,0,4.096,191.259,8.192,191.259
	c4.096,0,4.096-256,8.191-256c4.096,0,4.096,256,8.192,256c4.096,0,4.096-256,8.193-256c4.096,0,4.096,256,8.192,256
	s4.097-191.259,8.193-191.259c4.096,0,4.096,94.888,8.192,94.888s4.096-63.258,8.192-63.258c4.095,0,4.095,63.258,8.191,63.258
	s4.096-63.258,8.192-63.258c4.096,0,4.096,63.258,8.192,63.258c4.097,0,4.097-63.258,8.193-63.258
	c4.096,0,4.096,159.629,8.192,159.629c4.096,0,4.096-256,8.192-256s4.096,256,8.192,256s4.096-256,8.192-256
	c4.096,0,4.096,256,8.193,256s4.097-159.629,8.193-159.629l0,0c10.922,0,10.922,63.258,21.844,63.258
	c10.922,0,10.922-94.888,21.845-94.888c10.923,0,10.922,142.332,21.845,142.332c10.921,0,10.921-158.146,21.845-158.146
	s10.923,158.146,21.847,158.146c10.922,0,10.922-158.146,21.847-158.146c10.921,0,10.921,126.519,21.844,126.519
	s10.922-79.073,21.845-79.073c10.922,0,10.922,63.258,21.845,63.258c10.922,0,10.922-63.258,21.844-63.258
	c10.923,0,10.923,63.258,21.847,63.258c10.924,0,10.923-63.258,21.847-63.258c10.922,0,10.922,63.258,21.845,63.258
	c10.922,0,10.922-63.258,21.845-63.258s10.922,47.444,21.845,47.444c10.922,0,10.922-31.628,21.845-31.628
	s10.923,31.628,21.846,31.628s10.923-31.628,21.846-31.628c10.922,0,10.922,31.628,21.845,31.628
	c10.921,0,10.921-31.628,21.845-31.628c10.922,0,10.922,31.628,21.845,31.628c10.922,0,10.922-23.723,21.845-23.723
	c10.922,0,10.922,23.723,21.846,23.723s10.923-23.723,21.846-23.723l0,0c10.922,0,10.922,15.815,21.845,15.815
	c10.921,0,10.921-15.815,21.845-15.815c10.922,0,10.922,12.815,21.844,12.815"/>
<path fill="none" stroke="#FFFFFF" stroke-width="4" stroke-miterlimit="10" d="M2066.5,149.5c2.047,0,8.045,10.814,10.094,10.814
	c2.047,0,2.047-31.627,4.096-31.627c2.048,0,2.048,31.627,4.096,31.627c2.049,0,2.049-31.627,4.097-31.627
	s2.048,31.627,4.096,31.627c2.049,0,2.048-31.627,4.098-31.627c2.046,0,2.046,31.627,4.095,31.627
	c2.047,0,2.047-47.443,4.096-47.443c2.048,0,2.048,63.258,4.096,63.258c2.049,0,2.049-63.258,4.096-63.258
	c2.049,0,2.049,63.258,4.098,63.258c2.048,0,2.048-94.888,4.096-94.888c4.096,0,4.096,191.259,8.193,191.259
	c4.096,0,4.096-256,8.191-256s4.096,256,8.191,256s4.096-256,8.193-256c4.096,0,4.096,256,8.191,256
	c4.098,0,4.098-191.259,8.193-191.259s4.096,94.888,8.191,94.888c4.097,0,4.097-63.258,8.193-63.258
	c4.095,0,4.095,63.258,8.191,63.258c4.096,0,4.096-63.258,8.191-63.258s4.096,63.258,8.192,63.258s4.097-63.258,8.193-63.258
	c4.096,0,4.096,159.629,8.192,159.629c4.096,0,4.096-256,8.191-256s4.096,256,8.192,256s4.097-256,8.192-256s4.096,256,8.192,256
	s4.097-159.629,8.193-159.629l0,0c10.923,0,10.923,63.258,21.845,63.258s10.922-94.888,21.844-94.888
	c10.924,0,10.923,142.332,21.846,142.332c10.922,0,10.922-158.146,21.845-158.146s10.923,158.146,21.847,158.146
	c10.922,0,10.922-158.146,21.847-158.146c10.921,0,10.921,126.519,21.844,126.519s10.923-79.073,21.845-79.073
	s10.922,63.258,21.846,63.258c10.922,0,10.922-63.258,21.844-63.258c10.924,0,10.924,63.258,21.847,63.258
	c10.924,0,10.923-63.258,21.847-63.258c10.922,0,10.922,63.258,21.846,63.258c10.922,0,10.922-63.258,21.844-63.258
	c10.923,0,10.923,47.444,21.846,47.444c10.922,0,10.922-31.628,21.844-31.628c10.924,0,10.924,31.628,21.847,31.628
	s10.923-31.628,21.847-31.628c10.922,0,10.922,31.628,21.844,31.628s10.922-31.628,21.846-31.628
	c10.922,0,10.922,31.628,21.844,31.628s10.922-23.723,21.846-23.723c10.922,0,10.922,23.723,21.846,23.723
	s10.924-23.723,21.846-23.723l0,0c10.923,0,10.923,15.815,21.846,15.815c10.921,0,10.921-15.815,21.844-15.815
	c10.922,0,10.922,15.815,21.845,15.815s10.923-15.815,21.845-15.815c10.924,0,10.924,15.815,21.847,15.815
	s10.923-15.815,21.847-15.815c16.385,0,16.385,15.815,32.767,15.815c16.384,0,16.384-15.815,32.767-15.815
	s16.383,15.815,32.768,15.815c16.383,0,16.383-15.815,32.766-15.815c16.385,0,16.385,15.815,32.771,15.815
	c16.384,0,16.384-15.815,32.769-15.815c21.845,0,21.845,15.815,43.689,15.815c21.844,0,21.844-15.815,43.689-15.815
	s21.846,15.815,43.689,15.815c21.845,0,21.845-15.815,43.689-15.815c21.846,0,21.846,15.815,43.693,15.815
	c21.847,0,21.847-15.815,43.691-15.815c18.773,0,18.773,15.815,37.547,15.815c18.772,0,18.772-15.815,37.545-15.815
	c18.773,0,18.773,11.861,37.547,11.861s18.773-7.908,37.547-7.908s18.773,7.908,37.548,7.908s18.774-7.908,37.548-7.908"/>
</svg>
