<?xml version="1.0" encoding="utf-8"?>
<!-- Generator: Adobe Illustrator 16.2.1, SVG Export Plug-In . SVG Version: 6.00 Build 0)  -->
<!DOCTYPE svg PUBLIC "-//W3C//DTD SVG 1.1//EN" "http://www.w3.org/Graphics/SVG/1.1/DTD/svg11.dtd">
<svg version="1.1" id="wave_expanded" xmlns="http://www.w3.org/2000/svg" xmlns:xlink="http://www.w3.org/1999/xlink" x="0px"
	 y="0px" width="8192px" height="288px" viewBox="0 0 8192 288" enable-background="new 0 0 8192 288" xml:space="preserve">
<path fill="none" stroke="#FFFFFF" stroke-width="4" stroke-miterlimit="10" d="M0.5,144.5h2048c8.191,0,8.191,15.815,16.384,15.815
	c8.191,0,8.191-31.628,16.384-31.628c8.193,0,8.192,31.628,16.384,31.628c8.192,0,8.192-31.628,16.385-31.628
	s8.19,31.628,16.384,31.628s8.193-31.628,16.387-31.628c8.189,0,8.189,31.628,16.383,31.628c8.189,0,8.189-47.444,16.383-47.444
	c8.191,0,8.191,63.258,16.384,63.258c8.191,0,8.191-63.258,16.384-63.258c8.193,0,8.192,63.258,16.387,63.258
	c8.191,0,8.191-94.888,16.386-94.888c16.383,0,16.383,191.259,32.769,191.259c16.383,0,16.383-256,32.766-256
	c16.384,0,16.384,256,32.768,256c16.385,0,16.385-256,32.769-256s16.384,256,32.771,256c16.385,0,16.385-191.259,32.771-191.259
	c16.383,0,16.383,94.888,32.769,94.888c16.383,0,16.383-63.258,32.767-63.258s16.384,63.258,32.767,63.258
	c16.386,0,16.386-63.258,32.77-63.258s16.384,63.258,32.77,63.258s16.386-63.258,32.771-63.258
	c16.383,0,16.383,159.629,32.767,159.629c16.385,0,16.385-256,32.77-256c16.383,0,16.383,256,32.768,256s16.385-256,32.769-256
	c16.385,0,16.385,256,32.771,256s16.386-159.629,32.771-159.629h0.001c43.689,0,43.689,63.258,87.379,63.258
	s43.688-94.888,87.379-94.888s43.689,142.332,87.379,142.332s43.689-158.146,87.381-158.146s43.691,158.146,87.387,158.146
	c43.691,0,43.691-158.146,87.385-158.146c43.688,0,43.688,126.519,87.379,126.519c43.688,0,43.688-79.074,87.379-79.074
	c43.688,0,43.688,63.258,87.379,63.258c43.689,0,43.689-63.258,87.381-63.258s43.691,63.258,87.385,63.258
	c43.694,0,43.693-63.258,87.385-63.258c43.689,0,43.689,63.258,87.382,63.258c43.688,0,43.688-63.258,87.379-63.258
	c43.688,0,43.688,47.444,87.378,47.444s43.689-31.628,87.381-31.628s43.691,31.628,87.385,31.628
	c43.691,0,43.691-31.628,87.385-31.628c43.689,0,43.689,31.628,87.379,31.628c43.688,0,43.688-31.628,87.379-31.628
	c43.689,0,43.689,31.628,87.379,31.628s43.689-23.722,87.381-23.722s43.691,23.722,87.385,23.722
	c43.691,0,43.691-23.722,87.385-23.722l0,0c43.689,0,43.689,15.815,87.379,15.815c43.688,0,43.688-15.815,87.379-15.815
	c43.689,0,43.689,15.815,87.379,15.815s43.689-15.815,87.381-15.815s43.691,15.815,87.385,15.815s43.693-15.815,87.387-15.815
	c65.535,0,65.535,15.815,131.066,15.815c65.535,0,65.535-15.815,131.068-15.815c65.535,0,65.535,15.815,131.067,15.815
	c65.537,0,65.537-15.815,131.069-15.815c65.539,0,65.539,15.815,131.078,15.815s65.539-15.815,131.078-15.815
	c87.379,0,87.379,15.815,174.756,15.815c87.379,0,87.379-15.815,174.76-15.815c87.379,0,87.379,15.815,174.758,15.815
	c87.381,0,87.381-15.815,174.76-15.815c87.385,0,87.385,15.815,174.771,15.815c87.388,0,87.388-15.815,174.771-15.815
	c75.092,0,75.092,15.815,150.183,15.815c75.092,0,75.092-15.815,150.185-15.815c75.094,0,75.094,11.861,150.186,11.861
	s75.092-7.908,150.186-7.908c75.097,0,75.097,7.908,150.191,7.908c75.098,0,75.098-7.908,150.191-7.908"/>
</svg>
