<?xml version="1.0" encoding="utf-8"?>
<!-- Generator: Adobe Illustrator 16.2.1, SVG Export Plug-In . SVG Version: 6.00 Build 0)  -->
<!DOCTYPE svg PUBLIC "-//W3C//DTD SVG 1.1//EN" "http://www.w3.org/Graphics/SVG/1.1/DTD/svg11.dtd">
<svg version="1.1" id="wave_expanded" xmlns="http://www.w3.org/2000/svg" xmlns:xlink="http://www.w3.org/1999/xlink" x="0px"
	 y="0px" width="8192px" height="288px" viewBox="0 0 8192 288" enable-background="new 0 0 8192 288" xml:space="preserve">
<path fill="none" stroke="#FFFFFF" stroke-miterlimit="10" d="M512.5,144.5c15.751,0,15.751,16,31.503,16
	c15.753,0,15.753-32,31.506-32c15.752,0,15.752,32,31.504,32c15.751,0,15.751-32,31.503-32c15.753,0,15.753,40,31.506,40
	s15.753-48,31.506-48c15.751,0,15.751,48,31.503,48c15.753,0,15.753-48,31.507-48c15.752,0,15.752,72,31.505,72
	c15.752,0,15.752-96,31.504-96c15.754,0,15.754,96,31.508,96c15.752,0,15.752-96,31.504-96c15.752,0,15.752,64,31.505,64
	c15.753,0,15.753-32,31.507-32c15.752,0,15.752,32,31.504,32c15.754,0,15.754-32,31.508-32c15.752,0,15.752,48,31.505,48
	c15.754,0,15.754-64,31.508-64c15.753,0,15.753,64,31.506,64c15.754,0,15.754-64,31.508-64c15.752,0,15.752,64,31.505,64
	c15.754,0,15.754-64,31.508-64c15.753,0,15.753,64,31.505,64c15.754,0,15.754-64,31.508-64c15.752,0,15.752,64,31.505,64
	c15.753,0,15.753-64,31.507-64c15.754,0,15.754,64,31.508,64c15.753,0,15.753-96,31.507-96s15.753,128,31.507,128
	c15.754,0,15.754-112,31.509-112c15.754,0,15.754,96,31.507,96s15.753-96,31.506-96c15.754,0,15.754,96,31.507,96
	c15.754,0,15.754-80,31.508-80s15.754,64,31.508,64s15.754-64,31.509-64c15.754,0,15.754,64,31.509,64s15.754-64,31.509-64
	c15.754,0,15.754,64,31.508,64c15.753,0,15.753-64,31.505-64c15.753,0,15.753,64,31.506,64c15.751,0,15.751-64,31.503-64
	c15.753,0,15.753,64,31.506,64c15.754,0,15.754-64,31.509-64c15.753,0,15.753,64,31.507,64c15.753,0,15.753-64,31.506-64
	s15.753,64,31.506,64s15.753-80,31.506-80c15.754,0,15.754,96,31.508,96c15.756,0,15.756-96,31.512-96c15.754,0,15.754,96,31.508,96
	c15.755,0,15.755-96,31.51-96s15.755,96,31.509,96s15.754-80,31.509-80s15.755,64,31.51,64c15.756,0,15.756-64,31.512-64
	c15.756,0,15.756,64,31.513,64c15.754,0,15.754-64,31.507-64c15.754,0,15.754,64,31.509,64c15.756,0,15.756-64,31.512-64
	c15.756,0,15.756,64,31.513,64c15.757,0,15.757-64,31.514-64c15.756,0,15.756,64,31.513,64c15.759,0,15.759-64,31.518-64
	s15.759,64,31.518,64"/>
<g>
	<path fill="none" stroke="#FFFFFF" stroke-miterlimit="10" d="M4608.5,136.5c15.752,0,15.752,16,31.503,16
		c15.753,0,15.753-16,31.506-16s15.753,16,31.505,16s15.752-16,31.503-16c15.753,0,15.753,16,31.506,16s15.753-16,31.505-16
		s15.752,16,31.504,16c15.753,0,15.753-16,31.506-16c15.752,0,15.752,16,31.505,16s15.753-16,31.505-16
		c15.754,0,15.754,16,31.507,16s15.753-16,31.505-16c15.753,0,15.753,16,31.506,16s15.753-16,31.506-16
		c15.752,0,15.752,16,31.504,16c15.754,0,15.754-16,31.509-16c15.753,0,15.753,16,31.505,16c15.754,0,15.754-16,31.508-16
		c15.752,0,15.752,16,31.505,16c15.754,0,15.754-16,31.508-16c15.753,0,15.753,16,31.505,16c15.754,0,15.754-16,31.509-16
		c15.753,0,15.753,16,31.506,16c15.754,0,15.754-16,31.508-16c15.753,0,15.753,16,31.507,16c15.753,0,15.753-16,31.506-16
		c15.754,0,15.754,16,31.509,16c15.753,0,15.753-16,31.506-16s15.753,16,31.507,16c15.755,0,15.755-16,31.51-16
		c15.754,0,15.754,16,31.507,16s15.753-16,31.507-16s15.754,16,31.507,16c15.754,0,15.754-16,31.508-16
		c15.755,0,15.755,16,31.509,16s15.754-16,31.509-16s15.755,16,31.509,16s15.754-16,31.509-16c15.751,0,15.751,16,31.503,16
		s15.752-16,31.505-16s15.753,16,31.507,16c15.752,0,15.752-16,31.504-16c15.753,0,15.753,16,31.506,16c15.755,0,15.755-16,31.51-16
		c15.754,0,15.754,16,31.507,16s15.753-16,31.507-16c15.753,0,15.753,16,31.506,16c15.754,0,15.754-16,31.507-16
		c15.755,0,15.755,16,31.509,16c15.756,0,15.756-16,31.512-16c15.754,0,15.754,16,31.508,16c15.756,0,15.756-16,31.511-16
		s15.755,16,31.509,16c15.755,0,15.755-16,31.51-16s15.755,16,31.51,16c15.756,0,15.756-16,31.512-16c15.757,0,15.757,16,31.514,16
		c15.754,0,15.754-16,31.507-16c15.755,0,15.755,16,31.509,16c15.756,0,15.756-16,31.513-16s15.757,16,31.513,16
		c15.758,0,15.758-16,31.515-16s15.757,16,31.513,16c15.759,0,15.759-16,31.518-16s15.759,16,31.518,16"/>
</g>
<path fill="none" stroke="#FFFFFF" stroke-miterlimit="10" d="M6656.5,152.5c23.63,0,23.63-16,47.26-16s23.63,16,47.26,16
	c23.628,0,23.628-16,47.256-16c23.627,0,23.627,16,47.255,16c23.63,0,23.63-16,47.259-16s23.629,16,47.258,16
	c23.627,0,23.627-16,47.255-16c23.63,0,23.63,16,47.259,16s23.629-16,47.258-16c23.628,0,23.628,16,47.256,16
	c23.631,0,23.631-16,47.262-16c23.628,0,23.628,16,47.256,16c23.629,0,23.629-16,47.258-16s23.629,16,47.259,16
	c23.628,0,23.628-16,47.257-16c23.631,0,23.631,16,47.263,16c23.628,0,23.628-16,47.257-16c23.631,0,23.631,16,47.262,16
	c23.629,0,23.629-16,47.258-16c23.631,0,23.631,16,47.262,16c23.629,0,23.629-16,47.258-16c23.631,0,23.631,16,47.263,16
	c23.63,0,23.63-16,47.259-16c23.631,0,23.631,16,47.262,16c23.63,0,23.63-16,47.26-16s23.63,16,47.26,16
	c23.631,0,23.631-16,47.262-16c23.63,0,23.63,16,47.26,16s23.63-16,47.26-16c23.632,0,23.632,16,47.264,16
	c23.63,0,23.63-16,47.26-16s46.839,16,70.469,16"/>
<path fill="none" stroke="#FFFFFF" stroke-miterlimit="10" d="M2560.5,176.5c15.751,0,15.751-64,31.503-64
	c15.753,0,15.753,64,31.506,64c15.752,0,15.752-64,31.504-64c15.751,0,15.751,64,31.503,64c15.753,0,15.753-64,31.506-64
	s15.753,64,31.506,64c15.751,0,15.751-64,31.503-64c15.753,0,15.753,64,31.507,64c15.752,0,15.752-64,31.505-64
	c15.752,0,15.752,64,31.504,64c15.754,0,15.754-64,31.508-64c15.752,0,15.752,64,31.504,64c15.752,0,15.752-64,31.505-64
	c15.753,0,15.753,64,31.507,64c15.752,0,15.752-64,31.504-64c15.754,0,15.754,64,31.508,64c15.752,0,15.752-64,31.505-64
	c15.754,0,15.754,64,31.508,64c15.753,0,15.753-64,31.506-64c15.754,0,15.754,64,31.508,64c15.752,0,15.752-64,31.505-64
	c15.754,0,15.754,64,31.508,64c15.753,0,15.753-64,31.505-64c15.754,0,15.754,64,31.508,64c15.752,0,15.752-64,31.505-64
	c15.753,0,15.753,64,31.507,64c15.754,0,15.754-64,31.508-64c15.753,0,15.753,64,31.507,64s15.753-64,31.507-64
	c15.754,0,15.754,64,31.509,64c15.754,0,15.754-64,31.507-64s15.753,64,31.506,64c15.754,0,15.754-64,31.507-64
	c15.754,0,15.754,64,31.508,64s15.754-56,31.508-56s15.754,48,31.509,48c15.754,0,15.754-48,31.509-48s15.754,48,31.509,48
	c15.754,0,15.754-48,31.508-48c15.753,0,15.753,48,31.505,48c15.753,0,15.753-48,31.506-48c15.751,0,15.751,40,31.503,40
	c15.753,0,15.753-32,31.506-32c15.754,0,15.754,32,31.509,32c15.753,0,15.753-32,31.507-32c15.753,0,15.753,32,31.506,32
	s15.753-32,31.506-32s15.753,32,31.506,32c15.754,0,15.754-32,31.508-32c15.756,0,15.756,32,31.512,32c15.754,0,15.754-32,31.508-32
	c15.755,0,15.755,32,31.51,32s15.755-32,31.51-32c15.754,0,15.754,32,31.509,32s15.755-24,31.51-24c15.756,0,15.756,16,31.512,16
	c15.757,0,15.757-16,31.513-16c15.754,0,15.754,16,31.508,16s15.754-16,31.508-16c15.757,0,15.757,16,31.513,16
	c15.757,0,15.757-16,31.513-16c15.757,0,15.757,16,31.514,16s15.757-16,31.514-16c15.758,0,15.758,16,31.518,16
	c15.758,0,15.758-16,31.518-16"/>
<g>
	<line fill="none" stroke="#FFFFFF" stroke-miterlimit="10" x1="0.5" y1="144.5" x2="512.5" y2="144.5"/>
</g>
</svg>
