<?xml version="1.0" encoding="utf-8"?>
<!-- Generator: Adobe Illustrator 16.2.1, SVG Export Plug-In . SVG Version: 6.00 Build 0)  -->
<!DOCTYPE svg PUBLIC "-//W3C//DTD SVG 1.1//EN" "http://www.w3.org/Graphics/SVG/1.1/DTD/svg11.dtd">
<svg version="1.1" id="wave_expanded" xmlns="http://www.w3.org/2000/svg" xmlns:xlink="http://www.w3.org/1999/xlink" x="0px"
	 y="0px" width="8192px" height="48px" viewBox="0 120.5 8192 48" enable-background="new 0 120.5 8192 48" xml:space="preserve">
<path fill="none" stroke="#FFFFFF" stroke-miterlimit="10" d="M512.5,144.5c15.751,0,15.751,4,31.503,4c15.753,0,15.753-8,31.506-8
	c15.752,0,15.752,8,31.504,8c15.751,0,15.751-8,31.503-8c15.753,0,15.753,10,31.506,10s15.753-12,31.506-12
	c15.751,0,15.751,12,31.503,12c15.753,0,15.753-12,31.507-12c15.752,0,15.752,18,31.505,18c15.752,0,15.752-24,31.504-24
	c15.754,0,15.754,24,31.508,24c15.752,0,15.752-24,31.504-24c15.752,0,15.752,16,31.505,16c15.753,0,15.753-8,31.507-8
	c15.752,0,15.752,8,31.504,8c15.754,0,15.754-8,31.508-8c15.752,0,15.752,12,31.505,12c15.754,0,15.754-16,31.508-16
	c15.753,0,15.753,16,31.506,16c15.754,0,15.754-16,31.508-16c15.752,0,15.752,16,31.505,16c15.754,0,15.754-16,31.508-16
	c15.753,0,15.753,16,31.505,16c15.754,0,15.754-16,31.508-16c15.752,0,15.752,16,31.505,16c15.753,0,15.753-16,31.507-16
	c15.754,0,15.754,16,31.508,16c15.753,0,15.753-24,31.507-24s15.753,32,31.507,32c15.754,0,15.754-28,31.509-28
	c15.754,0,15.754,24,31.507,24s15.753-24,31.506-24c15.754,0,15.754,24,31.507,24c15.754,0,15.754-20,31.508-20s15.754,16,31.508,16
	s15.754-16,31.509-16c15.754,0,15.754,16,31.509,16s15.754-16,31.509-16c15.754,0,15.754,16,31.508,16c15.753,0,15.753-16,31.505-16
	c15.753,0,15.753,16,31.506,16c15.751,0,15.751-16,31.503-16c15.753,0,15.753,16,31.506,16c15.754,0,15.754-16,31.509-16
	c15.753,0,15.753,16,31.507,16c15.753,0,15.753-16,31.506-16s15.753,16,31.506,16s15.753-20,31.506-20c15.754,0,15.754,24,31.508,24
	c15.756,0,15.756-24,31.512-24c15.754,0,15.754,24,31.508,24c15.755,0,15.755-24,31.51-24s15.755,24,31.509,24s15.754-20,31.509-20
	s15.755,16,31.51,16c15.756,0,15.756-16,31.512-16c15.756,0,15.756,16,31.513,16c15.754,0,15.754-16,31.507-16
	c15.754,0,15.754,16,31.509,16c15.756,0,15.756-16,31.512-16c15.756,0,15.756,16,31.513,16c15.757,0,15.757-16,31.514-16
	c15.756,0,15.756,16,31.513,16c15.759,0,15.759-16,31.518-16s15.759,16,31.518,16"/>
<g>
	<path fill="none" stroke="#FFFFFF" stroke-miterlimit="10" d="M4608.5,136.5c15.752,0,15.752,16,31.503,16
		c15.753,0,15.753-16,31.506-16s15.753,16,31.505,16s15.752-16,31.503-16c15.753,0,15.753,16,31.506,16s15.753-16,31.505-16
		s15.752,16,31.504,16c15.753,0,15.753-16,31.506-16c15.752,0,15.752,16,31.505,16s15.753-16,31.505-16
		c15.754,0,15.754,16,31.507,16s15.753-16,31.505-16c15.753,0,15.753,16,31.506,16s15.753-16,31.506-16
		c15.752,0,15.752,16,31.504,16c15.754,0,15.754-16,31.509-16c15.753,0,15.753,16,31.505,16c15.754,0,15.754-16,31.508-16
		c15.752,0,15.752,16,31.505,16c15.754,0,15.754-16,31.508-16c15.753,0,15.753,16,31.505,16c15.754,0,15.754-16,31.509-16
		c15.753,0,15.753,16,31.506,16c15.754,0,15.754-16,31.508-16c15.753,0,15.753,16,31.507,16c15.753,0,15.753-16,31.506-16
		c15.754,0,15.754,16,31.509,16c15.753,0,15.753-16,31.506-16s15.753,16,31.507,16c15.755,0,15.755-16,31.51-16
		c15.754,0,15.754,16,31.507,16s15.753-16,31.507-16s15.754,16,31.507,16c15.754,0,15.754-16,31.508-16
		c15.755,0,15.755,16,31.509,16s15.754-16,31.509-16s15.755,16,31.509,16s15.754-16,31.509-16c15.751,0,15.751,16,31.503,16
		s15.752-16,31.505-16s15.753,16,31.507,16c15.752,0,15.752-16,31.504-16c15.753,0,15.753,16,31.506,16c15.755,0,15.755-16,31.51-16
		c15.754,0,15.754,16,31.507,16s15.753-16,31.507-16c15.753,0,15.753,16,31.506,16c15.754,0,15.754-16,31.507-16
		c15.755,0,15.755,16,31.509,16c15.756,0,15.756-16,31.512-16c15.754,0,15.754,16,31.508,16c15.756,0,15.756-16,31.511-16
		s15.755,16,31.509,16c15.755,0,15.755-16,31.51-16s15.755,16,31.51,16c15.756,0,15.756-16,31.512-16c15.757,0,15.757,16,31.514,16
		c15.754,0,15.754-16,31.507-16c15.755,0,15.755,16,31.509,16c15.756,0,15.756-16,31.513-16s15.757,16,31.513,16
		c15.758,0,15.758-16,31.515-16s15.757,16,31.513,16c15.759,0,15.759-16,31.518-16s15.759,16,31.518,16"/>
</g>
<path fill="none" stroke="#FFFFFF" stroke-miterlimit="10" d="M6656.5,146.5c23.63,0,23.63-4,47.26-4s23.63,4,47.26,4
	c23.628,0,23.628-4,47.256-4c23.627,0,23.627,4,47.255,4c23.63,0,23.63-4,47.259-4s23.629,4,47.258,4c23.627,0,23.627-4,47.255-4
	c23.63,0,23.63,4,47.259,4s23.629-4,47.258-4c23.628,0,23.628,4,47.256,4c23.631,0,23.631-4,47.262-4c23.628,0,23.628,4,47.256,4
	c23.629,0,23.629-4,47.258-4s23.629,4,47.259,4c23.628,0,23.628-4,47.257-4c23.631,0,23.631,4,47.263,4c23.628,0,23.628-4,47.257-4
	c23.631,0,23.631,4,47.262,4c23.629,0,23.629-4,47.258-4c23.631,0,23.631,4,47.262,4c23.629,0,23.629-4,47.258-4
	c23.631,0,23.631,4,47.263,4c23.63,0,23.63-4,47.259-4c23.631,0,23.631,4,47.262,4c23.63,0,23.63-4,47.26-4s23.63,4,47.26,4
	c23.631,0,23.631-4,47.262-4c23.63,0,23.63,4,47.26,4s23.63-4,47.26-4c23.632,0,23.632,4,47.264,4c23.63,0,23.63-4,47.26-4
	s46.839,4,70.469,4"/>
<path fill="none" stroke="#FFFFFF" stroke-miterlimit="10" d="M2560.5,152.5c15.751,0,15.751-16,31.503-16
	c15.753,0,15.753,16,31.506,16c15.752,0,15.752-16,31.504-16c15.751,0,15.751,16,31.503,16c15.753,0,15.753-16,31.506-16
	s15.753,16,31.506,16c15.751,0,15.751-16,31.503-16c15.753,0,15.753,16,31.507,16c15.752,0,15.752-16,31.505-16
	c15.752,0,15.752,16,31.504,16c15.754,0,15.754-16,31.508-16c15.752,0,15.752,16,31.504,16c15.752,0,15.752-16,31.505-16
	c15.753,0,15.753,16,31.507,16c15.752,0,15.752-16,31.504-16c15.754,0,15.754,16,31.508,16c15.752,0,15.752-16,31.505-16
	c15.754,0,15.754,16,31.508,16c15.753,0,15.753-16,31.506-16c15.754,0,15.754,16,31.508,16c15.752,0,15.752-16,31.505-16
	c15.754,0,15.754,16,31.508,16c15.753,0,15.753-16,31.505-16c15.754,0,15.754,16,31.508,16c15.752,0,15.752-16,31.505-16
	c15.753,0,15.753,16,31.507,16c15.754,0,15.754-16,31.508-16c15.753,0,15.753,16,31.507,16s15.753-16,31.507-16
	c15.754,0,15.754,16,31.509,16c15.754,0,15.754-16,31.507-16s15.753,16,31.506,16c15.754,0,15.754-16,31.507-16
	c15.754,0,15.754,16,31.508,16s15.754-14,31.508-14s15.754,12,31.509,12c15.754,0,15.754-12,31.509-12s15.754,12,31.509,12
	c15.754,0,15.754-12,31.508-12c15.753,0,15.753,12,31.505,12c15.753,0,15.753-12,31.506-12c15.751,0,15.751,10,31.503,10
	c15.753,0,15.753-8,31.506-8c15.754,0,15.754,8,31.509,8c15.753,0,15.753-8,31.507-8c15.753,0,15.753,8,31.506,8s15.753-8,31.506-8
	s15.753,8,31.506,8c15.754,0,15.754-8,31.508-8c15.756,0,15.756,8,31.512,8c15.754,0,15.754-8,31.508-8c15.755,0,15.755,8,31.51,8
	s15.755-8,31.51-8c15.754,0,15.754,8,31.509,8s15.755-6,31.51-6c15.756,0,15.756,4,31.512,4c15.757,0,15.757-4,31.513-4
	c15.754,0,15.754,4,31.508,4s15.754-4,31.508-4c15.757,0,15.757,4,31.513,4c15.757,0,15.757-4,31.513-4c15.757,0,15.757,4,31.514,4
	s15.757-4,31.514-4c15.758,0,15.758,4,31.518,4c15.758,0,15.758-4,31.518-4"/>
<g>
	<line fill="none" stroke="#FFFFFF" stroke-miterlimit="10" x1="0.5" y1="144.5" x2="512.5" y2="144.5"/>
</g>
</svg>
