<?xml version="1.0" encoding="utf-8"?>
<!-- Generator: Adobe Illustrator 16.2.1, SVG Export Plug-In . SVG Version: 6.00 Build 0)  -->
<!DOCTYPE svg PUBLIC "-//W3C//DTD SVG 1.1//EN" "http://www.w3.org/Graphics/SVG/1.1/DTD/svg11.dtd">
<svg version="1.1" id="wave_expanded" xmlns="http://www.w3.org/2000/svg" xmlns:xlink="http://www.w3.org/1999/xlink" x="0px"
	 y="0px" width="8192px" height="80px" viewBox="0 104.5 8192 80" enable-background="new 0 104.5 8192 80" xml:space="preserve">
<path fill="none" stroke="#FFFFFF" stroke-miterlimit="10" d="M512.5,144.5c15.751,0,15.751,8,31.503,8
	c15.753,0,15.753-16,31.506-16c15.752,0,15.752,16,31.504,16c15.751,0,15.751-16,31.503-16c15.753,0,15.753,20,31.506,20
	s15.753-24,31.506-24c15.751,0,15.751,24,31.503,24c15.753,0,15.753-24,31.507-24c15.752,0,15.752,36,31.505,36
	c15.752,0,15.752-48,31.504-48c15.754,0,15.754,48,31.508,48c15.752,0,15.752-48,31.504-48c15.752,0,15.752,32,31.505,32
	c15.753,0,15.753-16,31.507-16c15.752,0,15.752,16,31.504,16c15.754,0,15.754-16,31.508-16c15.752,0,15.752,24,31.505,24
	c15.754,0,15.754-32,31.508-32c15.753,0,15.753,32,31.506,32c15.754,0,15.754-32,31.508-32c15.752,0,15.752,32,31.505,32
	c15.754,0,15.754-32,31.508-32c15.753,0,15.753,32,31.505,32c15.754,0,15.754-32,31.508-32c15.752,0,15.752,32,31.505,32
	c15.753,0,15.753-32,31.507-32c15.754,0,15.754,32,31.508,32c15.753,0,15.753-48,31.507-48s15.753,64,31.507,64
	c15.754,0,15.754-56,31.509-56c15.754,0,15.754,48,31.507,48s15.753-48,31.506-48c15.754,0,15.754,48,31.507,48
	c15.754,0,15.754-40,31.508-40s15.754,32,31.508,32s15.754-32,31.509-32c15.754,0,15.754,32,31.509,32s15.754-32,31.509-32
	c15.754,0,15.754,32,31.508,32c15.753,0,15.753-32,31.505-32c15.753,0,15.753,32,31.506,32c15.751,0,15.751-32,31.503-32
	c15.753,0,15.753,32,31.506,32c15.754,0,15.754-32,31.509-32c15.753,0,15.753,32,31.507,32c15.753,0,15.753-32,31.506-32
	s15.753,32,31.506,32s15.753-40,31.506-40c15.754,0,15.754,48,31.508,48c15.756,0,15.756-48,31.512-48c15.754,0,15.754,48,31.508,48
	c15.755,0,15.755-48,31.51-48s15.755,48,31.509,48s15.754-40,31.509-40s15.755,32,31.51,32c15.756,0,15.756-32,31.512-32
	c15.756,0,15.756,32,31.513,32c15.754,0,15.754-32,31.507-32c15.754,0,15.754,32,31.509,32c15.756,0,15.756-32,31.512-32
	c15.756,0,15.756,32,31.513,32c15.757,0,15.757-32,31.514-32c15.756,0,15.756,32,31.513,32c15.759,0,15.759-32,31.518-32
	s15.759,32,31.518,32"/>
<g>
	<path fill="none" stroke="#FFFFFF" stroke-miterlimit="10" d="M4608.5,136.5c15.752,0,15.752,16,31.503,16
		c15.753,0,15.753-16,31.506-16s15.753,16,31.505,16s15.752-16,31.503-16c15.753,0,15.753,16,31.506,16s15.753-16,31.505-16
		s15.752,16,31.504,16c15.753,0,15.753-16,31.506-16c15.752,0,15.752,16,31.505,16s15.753-16,31.505-16
		c15.754,0,15.754,16,31.507,16s15.753-16,31.505-16c15.753,0,15.753,16,31.506,16s15.753-16,31.506-16
		c15.752,0,15.752,16,31.504,16c15.754,0,15.754-16,31.509-16c15.753,0,15.753,16,31.505,16c15.754,0,15.754-16,31.508-16
		c15.752,0,15.752,16,31.505,16c15.754,0,15.754-16,31.508-16c15.753,0,15.753,16,31.505,16c15.754,0,15.754-16,31.509-16
		c15.753,0,15.753,16,31.506,16c15.754,0,15.754-16,31.508-16c15.753,0,15.753,16,31.507,16c15.753,0,15.753-16,31.506-16
		c15.754,0,15.754,16,31.509,16c15.753,0,15.753-16,31.506-16s15.753,16,31.507,16c15.755,0,15.755-16,31.51-16
		c15.754,0,15.754,16,31.507,16s15.753-16,31.507-16s15.754,16,31.507,16c15.754,0,15.754-16,31.508-16
		c15.755,0,15.755,16,31.509,16s15.754-16,31.509-16s15.755,16,31.509,16s15.754-16,31.509-16c15.751,0,15.751,16,31.503,16
		s15.752-16,31.505-16s15.753,16,31.507,16c15.752,0,15.752-16,31.504-16c15.753,0,15.753,16,31.506,16c15.755,0,15.755-16,31.51-16
		c15.754,0,15.754,16,31.507,16s15.753-16,31.507-16c15.753,0,15.753,16,31.506,16c15.754,0,15.754-16,31.507-16
		c15.755,0,15.755,16,31.509,16c15.756,0,15.756-16,31.512-16c15.754,0,15.754,16,31.508,16c15.756,0,15.756-16,31.511-16
		s15.755,16,31.509,16c15.755,0,15.755-16,31.51-16s15.755,16,31.51,16c15.756,0,15.756-16,31.512-16c15.757,0,15.757,16,31.514,16
		c15.754,0,15.754-16,31.507-16c15.755,0,15.755,16,31.509,16c15.756,0,15.756-16,31.513-16s15.757,16,31.513,16
		c15.758,0,15.758-16,31.515-16s15.757,16,31.513,16c15.759,0,15.759-16,31.518-16s15.759,16,31.518,16"/>
</g>
<path fill="none" stroke="#FFFFFF" stroke-miterlimit="10" d="M6656.5,148.5c23.63,0,23.63-8,47.26-8s23.63,8,47.26,8
	c23.628,0,23.628-8,47.256-8c23.627,0,23.627,8,47.255,8c23.63,0,23.63-8,47.259-8s23.629,8,47.258,8c23.627,0,23.627-8,47.255-8
	c23.63,0,23.63,8,47.259,8s23.629-8,47.258-8c23.628,0,23.628,8,47.256,8c23.631,0,23.631-8,47.262-8c23.628,0,23.628,8,47.256,8
	c23.629,0,23.629-8,47.258-8s23.629,8,47.259,8c23.628,0,23.628-8,47.257-8c23.631,0,23.631,8,47.263,8c23.628,0,23.628-8,47.257-8
	c23.631,0,23.631,8,47.262,8c23.629,0,23.629-8,47.258-8c23.631,0,23.631,8,47.262,8c23.629,0,23.629-8,47.258-8
	c23.631,0,23.631,8,47.263,8c23.63,0,23.63-8,47.259-8c23.631,0,23.631,8,47.262,8c23.63,0,23.63-8,47.26-8s23.63,8,47.26,8
	c23.631,0,23.631-8,47.262-8c23.63,0,23.63,8,47.26,8s23.63-8,47.26-8c23.632,0,23.632,8,47.264,8c23.63,0,23.63-8,47.26-8
	s46.839,8,70.469,8"/>
<path fill="none" stroke="#FFFFFF" stroke-miterlimit="10" d="M2560.5,160.5c15.751,0,15.751-32,31.503-32
	c15.753,0,15.753,32,31.506,32c15.752,0,15.752-32,31.504-32c15.751,0,15.751,32,31.503,32c15.753,0,15.753-32,31.506-32
	s15.753,32,31.506,32c15.751,0,15.751-32,31.503-32c15.753,0,15.753,32,31.507,32c15.752,0,15.752-32,31.505-32
	c15.752,0,15.752,32,31.504,32c15.754,0,15.754-32,31.508-32c15.752,0,15.752,32,31.504,32c15.752,0,15.752-32,31.505-32
	c15.753,0,15.753,32,31.507,32c15.752,0,15.752-32,31.504-32c15.754,0,15.754,32,31.508,32c15.752,0,15.752-32,31.505-32
	c15.754,0,15.754,32,31.508,32c15.753,0,15.753-32,31.506-32c15.754,0,15.754,32,31.508,32c15.752,0,15.752-32,31.505-32
	c15.754,0,15.754,32,31.508,32c15.753,0,15.753-32,31.505-32c15.754,0,15.754,32,31.508,32c15.752,0,15.752-32,31.505-32
	c15.753,0,15.753,32,31.507,32c15.754,0,15.754-32,31.508-32c15.753,0,15.753,32,31.507,32s15.753-32,31.507-32
	c15.754,0,15.754,32,31.509,32c15.754,0,15.754-32,31.507-32s15.753,32,31.506,32c15.754,0,15.754-32,31.507-32
	c15.754,0,15.754,32,31.508,32s15.754-28,31.508-28s15.754,24,31.509,24c15.754,0,15.754-24,31.509-24s15.754,24,31.509,24
	c15.754,0,15.754-24,31.508-24c15.753,0,15.753,24,31.505,24c15.753,0,15.753-24,31.506-24c15.751,0,15.751,20,31.503,20
	c15.753,0,15.753-16,31.506-16c15.754,0,15.754,16,31.509,16c15.753,0,15.753-16,31.507-16c15.753,0,15.753,16,31.506,16
	s15.753-16,31.506-16s15.753,16,31.506,16c15.754,0,15.754-16,31.508-16c15.756,0,15.756,16,31.512,16c15.754,0,15.754-16,31.508-16
	c15.755,0,15.755,16,31.51,16s15.755-16,31.51-16c15.754,0,15.754,16,31.509,16s15.755-12,31.51-12c15.756,0,15.756,8,31.512,8
	c15.757,0,15.757-8,31.513-8c15.754,0,15.754,8,31.508,8s15.754-8,31.508-8c15.757,0,15.757,8,31.513,8c15.757,0,15.757-8,31.513-8
	c15.757,0,15.757,8,31.514,8s15.757-8,31.514-8c15.758,0,15.758,8,31.518,8c15.758,0,15.758-8,31.518-8"/>
<g>
	<line fill="none" stroke="#FFFFFF" stroke-miterlimit="10" x1="0.5" y1="144.5" x2="512.5" y2="144.5"/>
</g>
</svg>
